<svg enable-background="new 0 0 256 256" height="512" viewBox="0 0 256 256" width="512" xmlns="http://www.w3.org/2000/svg"><g id="Layer_1"><g><g><circle cx="128.5" cy="128" fill="#fc5d3d" r="55.563"/></g><g><circle cx="128.5" cy="128" fill="#f0c020" r="21.974"/></g><g><path d="m47.329 211.173c1.889-1.49 3.106-3.794 3.106-6.387v-3.653c0-4.494-3.643-8.136-8.136-8.136-4.494 0-8.136 3.643-8.136 8.136v3.653c0 2.602 1.226 4.913 3.126 6.402-7.26.775-12.915 6.916-12.915 14.382v7.579h36.012v-7.579c-.001-7.514-5.729-13.687-13.057-14.397z" fill="#fc5d3d"/></g><g><path d="m219.535 211.173c1.889-1.49 3.106-3.794 3.106-6.387v-3.653c0-4.494-3.643-8.136-8.136-8.136-4.494 0-8.136 3.643-8.136 8.136v3.653c0 2.602 1.226 4.913 3.126 6.402-7.26.775-12.915 6.916-12.915 14.382v7.579h36.012v-7.579c-.001-7.514-5.73-13.687-13.057-14.397z" fill="#fc5d3d"/></g><g><path d="m47.329 41.029c1.889-1.49 3.106-3.794 3.106-6.387v-3.653c0-4.494-3.643-8.136-8.136-8.136-4.494 0-8.136 3.643-8.136 8.136v3.653c0 2.602 1.226 4.913 3.126 6.402-7.26.775-12.915 6.916-12.915 14.382v7.579h36.012v-7.579c-.001-7.514-5.729-13.687-13.057-14.397z" fill="#fc5d3d"/></g><g><path d="m219.535 41.029c1.889-1.49 3.106-3.794 3.106-6.387v-3.653c0-4.494-3.643-8.136-8.136-8.136-4.494 0-8.136 3.643-8.136 8.136v3.653c0 2.602 1.226 4.913 3.126 6.402-7.26.775-12.915 6.916-12.915 14.382v7.579h36.012v-7.579c-.001-7.514-5.73-13.687-13.057-14.397z" fill="#fc5d3d"/></g><g><path d="m47.329 41.029c1.889-1.49 3.106-3.794 3.106-6.387v-3.653c0-4.494-3.643-8.136-8.136-8.136-4.494 0-8.136 3.643-8.136 8.136v3.653c0 2.602 1.226 4.913 3.126 6.402-7.26.775-12.915 6.916-12.915 14.382v7.579h36.012v-7.579c-.001-7.514-5.729-13.687-13.057-14.397z" fill="#fc5d3d"/></g><g><path d="m219.535 41.029c1.889-1.49 3.106-3.794 3.106-6.387v-3.653c0-4.494-3.643-8.136-8.136-8.136-4.494 0-8.136 3.643-8.136 8.136v3.653c0 2.602 1.226 4.913 3.126 6.402-7.26.775-12.915 6.916-12.915 14.382v7.579h36.012v-7.579c-.001-7.514-5.73-13.687-13.057-14.397z" fill="#fc5d3d"/></g><g><path d="m47.329 211.173c1.889-1.49 3.106-3.794 3.106-6.387v-3.653c0-4.494-3.643-8.136-8.136-8.136-4.494 0-8.136 3.643-8.136 8.136v3.653c0 2.602 1.226 4.913 3.126 6.402-7.26.775-12.915 6.916-12.915 14.382v7.579h36.012v-7.579c-.001-7.514-5.729-13.687-13.057-14.397z" fill="#fc5d3d"/></g><g><path d="m219.535 211.173c1.889-1.49 3.106-3.794 3.106-6.387v-3.653c0-4.494-3.643-8.136-8.136-8.136-4.494 0-8.136 3.643-8.136 8.136v3.653c0 2.602 1.226 4.913 3.126 6.402-7.26.775-12.915 6.916-12.915 14.382v7.579h36.012v-7.579c-.001-7.514-5.73-13.687-13.057-14.397z" fill="#fc5d3d"/></g><g><path d="m32.456 124.697c1.889-1.49 3.106-3.794 3.106-6.387v-3.653c0-4.494-3.643-8.136-8.136-8.136-4.494 0-8.136 3.643-8.136 8.136v3.653c0 2.602 1.226 4.913 3.126 6.402-7.26.775-12.915 6.916-12.915 14.382v7.579h36.012v-7.579c-.001-7.514-5.73-13.687-13.057-14.397z" fill="#72c2e9"/></g><g><path d="m233.444 124.697c1.889-1.49 3.106-3.794 3.106-6.387v-3.653c0-4.494-3.643-8.136-8.136-8.136-4.494 0-8.136 3.643-8.136 8.136v3.653c0 2.602 1.226 4.913 3.126 6.402-7.26.775-12.915 6.916-12.915 14.382v7.579h36.011v-7.579c0-7.514-5.729-13.687-13.056-14.397z" fill="#72c2e9"/></g><g><path d="m133.432 25.993c1.889-1.49 3.106-3.794 3.106-6.387v-3.653c0-4.494-3.643-8.136-8.136-8.136-4.494 0-8.136 3.643-8.136 8.136v3.653c0 2.602 1.226 4.913 3.126 6.402-7.26.775-12.915 6.916-12.915 14.382v7.579h36.012v-7.579c-.001-7.514-5.73-13.687-13.057-14.397z" fill="#72c2e9"/></g><g><path d="m133.432 226.209c1.889-1.49 3.106-3.794 3.106-6.387v-3.653c0-4.494-3.643-8.136-8.136-8.136-4.494 0-8.136 3.643-8.136 8.136v3.653c0 2.602 1.226 4.913 3.126 6.402-7.26.775-12.915 6.916-12.915 14.382v7.579h36.012v-7.579c-.001-7.514-5.73-13.687-13.057-14.397z" fill="#72c2e9"/></g><g><g><path d="m128.5 176.042c-6.904 0-13.852-1.514-20.092-4.377-1.255-.576-1.805-2.06-1.229-3.315.575-1.254 2.059-1.806 3.315-1.229 5.59 2.565 11.816 3.921 18.006 3.921 23.828 0 43.042-19.21 43.042-43.042 0-11.516-4.472-22.331-12.592-30.451-.977-.976-.977-2.559 0-3.535.977-.977 2.559-.977 3.535 0 9.064 9.064 14.057 21.134 14.057 33.986 0 26.591-21.446 48.042-48.042 48.042zm-29.116-9.798c-1.703-1.298-3.341-2.731-4.869-4.258-.977-.976-.977-2.559 0-3.536s2.559-.976 3.536 0c1.37 1.37 2.839 2.654 4.365 3.818 1.098.837 1.31 2.406.473 3.504-.84 1.099-2.41 1.308-3.505.472z" fill="#ffcbc3"/></g><path d="m180.77 147.07c-1.26-.52-2.76.1-3.27 1.34-.53 1.27.069 2.74 1.34 3.27 1.225.516 2.724-.037 3.27-1.34 0-.01 0-.01.011-.02.53-1.294-.111-2.742-1.351-3.25z"/><path d="m158.138 130.5c.331.988 1.258 1.71 2.362 1.71 1.38 0 2.5-1.12 2.5-2.49v-3.43c0-1.38-1.12-2.5-2.5-2.5-1.102 0-2.028.719-2.36 1.71h-5.297c-.48-4.769-2.329-9.238-5.359-12.953l3.744-3.739c1.035.516 2.166.257 2.881-.459.966-.964.982-2.548 0-3.53-.586-.586.503.502-2.43-2.43-.939-.94-2.59-.94-3.53 0-.783.783-.929 1.946-.461 2.883l-3.737 3.742c-3.714-3.03-8.183-4.879-12.952-5.358v-5.294c.991-.331 1.72-1.258 1.72-2.362 0-1.38-1.13-2.5-2.5-2.5h-3.44c-1.37 0-2.5 1.12-2.5 2.5 0 1.104.729 2.032 1.72 2.362v5.294c-4.769.48-9.238 2.329-12.953 5.358l-3.739-3.744c.513-1.028.261-2.161-.459-2.881-.94-.95-2.59-.95-3.53 0-.21.21-2.092 2.092-2.43 2.43-.972.973-.977 2.553 0 3.53.721.721 1.855.971 2.881.459l3.744 3.739c-3.03 3.715-4.879 8.184-5.358 12.953h-5.296c-.332-.994-1.258-1.72-2.361-1.72-1.38 0-2.5 1.13-2.5 2.51v3.43c0 1.37 1.12 2.5 2.5 2.5 1.104 0 2.032-.728 2.362-1.72h5.294c.48 4.769 2.328 9.238 5.358 12.953l-3.749 3.743c-.936-.446-2.129-.302-2.876.454-.97.97-.978 2.552 0 3.53.127.127 1.902 1.901 2.43 2.43.979.978 2.559.97 3.53 0 .783-.783.93-1.946.461-2.883l3.737-3.742c3.715 3.03 8.184 4.879 12.953 5.358v5.294c-.992.33-1.72 1.257-1.72 2.362 0 1.38 1.13 2.5 2.5 2.5h3.44c1.37 0 2.5-1.12 2.5-2.5 0-1.105-.728-2.032-1.72-2.362v-5.295c4.769-.48 9.238-2.329 12.952-5.358l3.737 3.742c-1.233 2.466 1.895 4.974 4.133 2.741l2.288-2.288c.98-.979.968-2.564 0-3.53-.747-.756-1.939-.9-2.876-.454l-3.749-3.744c3.03-3.715 4.879-8.184 5.359-12.953h5.296zm-29.638 16.97c-10.72-.01-19.46-8.75-19.47-19.47.01-10.72 8.75-19.46 19.47-19.47 10.72.01 19.45 8.75 19.47 19.47-.02 10.72-8.75 19.46-19.47 19.47z"/><path d="m151.821 153.468c-.001.001-.005.005-.014.014.008-.008.016-.015.014-.014z"/><path d="m120.6 123.68c1.38 0 2.5-1.12 2.5-2.5v-2.15c0-1.38-1.12-2.5-2.5-2.5-1.37 0-2.5 1.12-2.5 2.5v2.15c0 1.38 1.13 2.5 2.5 2.5z"/><path d="m135.93 117.04-18.39 18.39c-.993.973-.985 2.565 0 3.53.975.996 2.571.978 3.53 0l18.39-18.39c.479-.47.74-1.1.74-1.77 0-.66-.261-1.29-.74-1.76-.94-.95-2.59-.95-3.53 0z"/><path d="m136.399 132.32c-1.38 0-2.5 1.12-2.5 2.5v2.15c0 1.38 1.12 2.5 2.5 2.5 1.37 0 2.5-1.12 2.5-2.5v-2.15c0-1.38-1.129-2.5-2.5-2.5z"/><path d="m192.78 136.92c.908 1.024 2.497 1.131 3.529.21l8.21-7.26c1.088-.954 1.136-2.737 0-3.74l-8.21-7.26c-1-.88-2.649-.78-3.529.21-.91 1.04-.82 2.62.22 3.53l3.265 2.89h-9.767c-.583-13.918-6.062-26.771-15.212-36.747l14.134-14.134v3.121c0 1.38 1.12 2.5 2.5 2.5s2.5-1.12 2.5-2.5v-9.16c0-1.388-1.146-2.5-2.5-2.5h-9.16c-1.38 0-2.5 1.13-2.5 2.5 0 1.38 1.12 2.5 2.5 2.5h.01 3.11l-14.134 14.134c-10.053-9.229-22.929-14.634-36.746-15.213v-8.332l2.899 3.211c.891.98 2.551 1.07 3.54.18 1.02-.916 1.104-2.48.181-3.53l-7.261-8.04c-.971-1.072-2.718-1.107-3.709 0l-7.26 8.04c-.93 1.02-.85 2.61.17 3.53.999.912 2.583.875 3.54-.18l2.9-3.212v8.333c-13.895.582-26.752 6.041-36.747 15.212l-14.134-14.133h3.12c1.38 0 2.5-1.12 2.5-2.5 0-1.37-1.12-2.5-2.5-2.5h-9.16c-1.297 0-2.5 1.075-2.5 2.5v9.16c0 1.38 1.13 2.5 2.5 2.5 1.38 0 2.5-1.12 2.5-2.5v-3.121l14.134 14.134c-9.186 10.01-14.631 22.872-15.212 36.747h-9.767l3.266-2.89c1.04-.91 1.13-2.49.22-3.53-.88-.99-2.53-1.09-3.53-.21l-8.21 7.26c-1.129 1.003-1.101 2.768 0 3.74l8.21 7.26c1.033.921 2.622.814 3.53-.21.91-1.04.82-2.62-.22-3.53l-3.265-2.89h9.766c.579 13.816 5.982 26.692 15.212 36.747l-14.133 14.134v-3.121c0-1.38-1.12-2.5-2.5-2.5-1.37 0-2.5 1.12-2.5 2.5v9.16c0 1.364 1.095 2.5 2.5 2.5h9.16c1.38 0 2.5-1.13 2.5-2.5 0-1.38-1.11-2.49-2.48-2.5-.01 0-.01 0-.02 0h-3.12l14.134-14.133c10.011 9.186 22.872 14.631 36.747 15.212v8.332l-2.9-3.212c-.89-.99-2.55-1.07-3.54-.18-1.02.92-1.1 2.51-.18 3.53l7.26 8.04c1.038 1.117 2.756 1.059 3.71 0l7.26-8.04c.931-1.02.851-2.61-.18-3.53-.979-.89-2.64-.81-3.53.18l-2.901 3.212v-8.331c13.147-.567 26.169-5.531 36.733-15.226l14.146 14.146h-3.12c-1.38 0-2.5 1.12-2.5 2.5s1.12 2.5 2.5 2.5h9.16c1.402 0 2.5-1.133 2.5-2.5v-9.16c0-1.38-1.12-2.5-2.5-2.5s-2.49 1.11-2.5 2.49v.01 3.121l-14.152-14.152c2.193-2.387 4.204-4.944 5.972-7.669.755-1.145.427-2.695-.73-3.46-1.13-.73-2.74-.38-3.46.74-9.85 15.17-26.5 24.22-44.55 24.22-14.17 0-27.5-5.52-37.52-15.54s-15.539-23.35-15.539-37.52c0-47.512 57.507-70.594 90.58-37.52 10.021 10.02 15.54 23.35 15.54 37.52 0 3.82-.399 7.63-1.21 11.32-.14.65-.02 1.32.34 1.88s.92.95 1.58 1.09c1.32.29 2.681-.6 2.971-1.91.704-3.24 1.113-6.551 1.253-9.88h9.771l-3.265 2.89c-1.04.91-1.13 2.49-.22 3.53z"/><path d="m60.39 65.5c1.37 0 2.5-1.12 2.5-2.49 0-.01 0-.01-.01-.02v-7.57c0-7.09-4.47-13.49-11.12-15.92.77-1.5 1.18-3.17 1.17-4.86v-3.65c0-5.86-4.77-10.64-10.63-10.64s-10.63 4.78-10.64 10.64v3.65c0 1.7.42 3.4 1.2 4.9-6.477 2.443-10.969 8.655-10.99 15.88v7.59c0 1.37 1.13 2.49 2.51 2.49 1.37 0 2.49-1.12 2.49-2.49v-7.59c0-6.13 4.59-11.24 10.68-11.89 1.02-.11 1.86-.81 2.14-1.8.28-.98-.05-2.02-.86-2.65-1.38-1.09-2.17-2.71-2.17-4.44v-3.65c.01-3.1 2.54-5.63 5.64-5.64 3.1.01 5.63 2.54 5.64 5.64v3.65c-.01 1.73-.79 3.34-2.16 4.43-.81.63-1.14 1.68-.85 2.66.29.99 1.14 1.69 2.16 1.79 6.16.59 10.8 5.71 10.8 11.9v7.59c0 1.37 1.12 2.49 2.5 2.49z"/><path d="m232.59 65.5c1.38 0 2.5-1.12 2.5-2.5v-.01-7.57c0-7.09-4.47-13.49-11.12-15.93.76-1.49 1.17-3.17 1.17-4.85v-3.65c0-5.87-4.77-10.64-10.63-10.64-5.87 0-10.64 4.77-10.64 10.64v3.65c0 1.71.41 3.4 1.199 4.9-6.496 2.443-10.989 8.673-10.989 15.88v7.58c0 1.38 1.12 2.5 2.5 2.5s2.5-1.12 2.5-2.5v-7.58c-.011-6.13 4.59-11.24 10.68-11.89 1.021-.11 1.85-.82 2.14-1.8.28-.98-.06-2.02-.859-2.65-1.38-1.09-2.17-2.71-2.17-4.44v-3.65c0-3.1 2.529-5.63 5.64-5.64 3.1.01 5.63 2.54 5.63 5.64v3.65c0 1.73-.79 3.34-2.149 4.42-.811.64-1.141 1.69-.86 2.67.29.99 1.14 1.69 2.16 1.79 6.16.59 10.81 5.71 10.8 11.9v7.58c-.002 1.38 1.118 2.5 2.498 2.5z"/><path d="m60.39 235.65c1.37 0 2.5-1.12 2.5-2.5 0-.01 0-.01-.01-.02v-7.56c0-7.1-4.47-13.49-11.12-15.93.77-1.49 1.18-3.17 1.17-4.85v-3.66c0-5.86-4.77-10.63-10.63-10.63s-10.63 4.77-10.64 10.63v3.66c0 1.7.42 3.39 1.2 4.9-6.461 2.437-10.969 8.638-10.99 15.88v7.58c0 1.38 1.13 2.5 2.51 2.5 1.37 0 2.49-1.12 2.49-2.5v-7.58c0-6.13 4.59-11.25 10.68-11.9 1.02-.11 1.86-.81 2.14-1.79.28-.99-.05-2.03-.86-2.66-1.38-1.09-2.17-2.7-2.17-4.43v-3.66c.01-3.1 2.54-5.63 5.64-5.63s5.63 2.53 5.64 5.63v3.66c-.01 1.73-.79 3.34-2.16 4.42-.8.63-1.14 1.68-.85 2.67.29.98 1.14 1.68 2.16 1.78 6.16.6 10.8 5.72 10.8 11.91v7.58c0 1.38 1.12 2.5 2.5 2.5z"/><path d="m232.59 235.65c1.38 0 2.5-1.12 2.5-2.5 0-.01 0-.01 0-.01v-7.57c0-7.1-4.47-13.49-11.12-15.93.76-1.49 1.17-3.17 1.17-4.85v-3.66c0-5.86-4.77-10.63-10.63-10.63-5.87 0-10.64 4.77-10.64 10.63v3.66c0 1.7.41 3.39 1.199 4.9-6.492 2.442-10.989 8.668-10.989 15.88v7.58c0 1.38 1.12 2.5 2.5 2.5s2.5-1.12 2.5-2.5v-7.58c-.011-6.13 4.59-11.25 10.68-11.9 1.021-.1 1.85-.81 2.14-1.79.28-.99-.06-2.03-.859-2.66-1.38-1.09-2.17-2.7-2.17-4.43v-3.66c0-3.1 2.529-5.63 5.64-5.63 3.1 0 5.63 2.53 5.63 5.63v3.66c0 1.72-.79 3.34-2.149 4.42-.811.64-1.141 1.68-.86 2.67.29.98 1.14 1.68 2.16 1.78 6.16.6 10.81 5.72 10.8 11.91v7.58c-.002 1.38 1.118 2.5 2.498 2.5z"/><path d="m7 139.09v7.58c0 1.38 1.12 2.5 2.5 2.5s2.5-1.12 2.5-2.5v-7.58c-.01-6.13 4.59-11.24 10.68-11.89 1.02-.11 1.86-.82 2.14-1.8s-.06-2.03-.86-2.66c-1.38-1.08-2.17-2.7-2.17-4.43v-3.65c0-3.11 2.53-5.64 5.64-5.64 3.1 0 5.63 2.53 5.63 5.64v3.65c0 1.73-.78 3.34-2.15 4.42-.8.63-1.14 1.7-.85 2.67.28.98 1.13 1.69 2.15 1.79 6.17.59 10.81 5.71 10.8 11.9v7.58c0 1.38 1.12 2.5 2.5 2.5s2.5-1.12 2.5-2.5v-7.58c0-7.09-4.47-13.49-11.12-15.93.77-1.49 1.17-3.17 1.17-4.85v-3.65c0-5.87-4.77-10.64-10.63-10.64-5.87 0-10.64 4.77-10.64 10.64v3.65c0 1.7.41 3.4 1.2 4.9-6.457 2.428-10.99 8.638-10.99 15.88z"/><path d="m246.5 149.17c1.38 0 2.5-1.12 2.5-2.5v-.01-7.57c-.01-7.09-4.47-13.49-11.12-15.93.76-1.49 1.17-3.17 1.17-4.85v-3.65c0-5.87-4.77-10.64-10.64-10.64-5.86 0-10.63 4.77-10.63 10.64v3.65c0 1.7.409 3.4 1.199 4.9-6.492 2.442-10.989 8.668-10.989 15.88v7.58c0 1.38 1.119 2.5 2.5 2.5 1.38 0 2.5-1.12 2.5-2.5v-7.58c-.011-6.13 4.59-11.24 10.68-11.89 1.02-.11 1.85-.82 2.14-1.8.28-.98-.06-2.03-.87-2.66-1.37-1.08-2.159-2.7-2.159-4.43v-3.65c0-3.11 2.529-5.63 5.63-5.64 3.109.01 5.63 2.53 5.64 5.64v3.65c0 1.73-.78 3.34-2.15 4.42-.8.63-1.14 1.7-.859 2.67.29.99 1.14 1.69 2.16 1.78 6.159.6 10.81 5.72 10.8 11.91v7.58c-.002 1.38 1.118 2.5 2.498 2.5z"/><path d="m146.49 50.47c1.38 0 2.5-1.12 2.5-2.5 0-.01 0-.01 0-.01v-7.57c-.011-7.1-4.471-13.49-11.131-15.93.771-1.49 1.181-3.17 1.181-4.85v-3.66c0-5.86-4.771-10.63-10.64-10.63-5.86 0-10.63 4.77-10.63 10.63v3.66c0 1.7.41 3.39 1.2 4.9-6.496 2.444-10.99 8.671-10.99 15.88v7.58c0 1.38 1.12 2.5 2.5 2.5 1.37 0 2.5-1.12 2.5-2.5v-7.58c-.01-6.13 4.58-11.25 10.68-11.9 1.01-.1 1.85-.81 2.13-1.79.29-.99-.05-2.03-.86-2.66-1.37-1.08-2.16-2.7-2.16-4.43v-3.66c0-3.1 2.53-5.63 5.63-5.63s5.63 2.53 5.64 5.63v3.66c0 1.72-.79 3.33-2.16 4.42-.8.64-1.14 1.68-.85 2.67.289.97 1.149 1.68 2.159 1.78 6.16.6 10.801 5.72 10.801 11.91v7.58c0 1.38 1.119 2.5 2.5 2.5z"/><path d="m146.49 250.68c1.38 0 2.5-1.12 2.5-2.5v-.01-7.56c-.011-7.1-4.471-13.5-11.131-15.94.771-1.49 1.181-3.17 1.181-4.85v-3.65c0-5.87-4.771-10.64-10.64-10.64-5.86 0-10.63 4.77-10.63 10.64v3.65c0 1.7.41 3.4 1.19 4.9-6.478 2.445-10.98 8.662-10.98 15.89v7.57c0 1.38 1.12 2.5 2.5 2.5 1.37 0 2.5-1.12 2.5-2.5v-7.57c-.01-6.14 4.58-11.25 10.68-11.9 1.01-.11 1.85-.81 2.13-1.8.29-.98-.05-2.02-.86-2.65-1.37-1.09-2.16-2.7-2.16-4.44v-3.65c0-3.1 2.53-5.63 5.63-5.64 3.1.01 5.63 2.54 5.64 5.64v3.65c0 1.73-.79 3.34-2.16 4.43-.8.63-1.14 1.68-.85 2.66.289.97 1.149 1.69 2.159 1.79 6.16.59 10.801 5.71 10.801 11.91v7.57c0 1.38 1.119 2.5 2.5 2.5z"/></g></g></g></svg>